<svg width="18" height="18" viewBox="0 0 18 18" fill="none" xmlns="http://www.w3.org/2000/svg">
<path d="M0.818502 11.182H8.05116C8.40578 10.6719 8.9944 10.3634 9.61621 10.3634H14.9291C15.0433 10.3634 15.1583 10.374 15.27 10.3934C15.2724 10.3853 15.2724 10.374 15.2724 10.3634V9.54489C15.2724 5.33401 11.8469 1.90826 7.6358 1.90826C3.42575 1.90907 0 5.33463 0 9.54572V10.3643C0 10.8144 0.36838 11.1828 0.818548 11.1828L0.818502 11.182Z" fill="#042E60"/>
<path d="M0.818516 13.0911H6.90062L7.88273 11.4548H0.818578C0.36841 11.4548 3.05176e-05 11.8232 3.05176e-05 12.2734C3.05176e-05 12.7236 0.36841 13.0919 0.818578 13.0919L0.818516 13.0911Z" fill="#042E60"/>
<path d="M8.18154 0H7.09095C6.64078 0 6.2724 0.36838 6.2724 0.818548C6.2724 1.26872 6.64078 1.6371 7.09095 1.6371H8.18154C8.6317 1.6371 9.00008 1.26872 9.00008 0.818548C9.00008 0.36838 8.6317 0 8.18154 0Z" fill="#042E60"/>
<path d="M17.3459 13.653L16.0967 11.5714C15.8522 11.1633 15.4036 10.9091 14.9276 10.9091H9.61711C9.14103 10.9091 8.6925 11.1625 8.44798 11.5714L7.19871 13.653C6.82627 13.7291 6.54453 14.0594 6.54453 14.4546C6.54453 14.8497 6.82548 15.18 7.19871 15.2561L8.44798 17.3377C8.6925 17.7458 9.14105 18 9.61711 18H14.9276C15.4036 18 15.8522 17.7466 16.0967 17.3377L17.3459 15.2561C17.7184 15.18 18.0001 14.8497 18.0001 14.4546C18.0001 14.0594 17.7192 13.7291 17.3459 13.653ZM8.91589 11.8516C9.06325 11.6062 9.33124 11.454 9.61704 11.454H14.9275C15.2133 11.454 15.4821 11.6062 15.6286 11.8516L16.699 13.636H7.84466L8.91589 11.8516ZM15.6296 17.0567C15.4822 17.302 15.2142 17.4542 14.9284 17.4542H14.1827V16.6357C14.1827 16.4851 14.0605 16.3628 13.9099 16.3628C13.7593 16.3628 13.637 16.4851 13.637 16.6357V17.4542H12.5464V16.6357C12.5464 16.4851 12.4242 16.3628 12.2736 16.3628C12.123 16.3628 12.0007 16.4851 12.0007 16.6357V17.4542H10.9101V16.6357C10.9101 16.4851 10.7879 16.3628 10.6373 16.3628C10.4867 16.3628 10.3644 16.4851 10.3644 16.6357V17.4542H9.61874C9.33294 17.4542 9.06413 17.302 8.91759 17.0567L7.84642 15.2722H16.7008L15.6304 17.0567H15.6296ZM17.1816 14.7274H7.36392C7.21333 14.7274 7.09107 14.6052 7.09107 14.4546C7.09107 14.304 7.21333 14.1817 7.36392 14.1817H17.1816C17.3322 14.1817 17.4545 14.304 17.4545 14.4546C17.4545 14.6052 17.3322 14.7274 17.1816 14.7274Z" fill="#042E60"/>
</svg>
