<svg width="24" height="24" viewBox="0 0 24 24" fill="none" xmlns="http://www.w3.org/2000/svg">
<path d="M0.996241 20H22.9962C23.3561 20 23.6861 19.81 23.8561 19.5C24.0361 19.19 24.0361 18.81 23.8661 18.5L20.8562 13.2399C20.2962 12.2599 19.9962 11.1399 19.9962 9.9999C19.9962 5.92983 16.9362 2.55993 12.9962 2.07001V0.999996C12.9962 0.449982 12.5462 0 11.9962 0C11.4462 0 10.9962 0.449982 10.9962 0.999996V2.07001C7.05639 2.55999 3.99624 5.92983 3.99624 9.9999C3.99624 11.1399 3.69625 12.2599 3.13625 13.2399L0.126276 18.5C-0.043723 18.81 -0.043723 19.19 0.136276 19.5C0.306276 19.81 0.636242 20 0.996241 20Z" fill="white"/>
<path d="M15.9962 22H7.99622C8.90623 23.21 10.3562 24 11.9962 24C13.6362 24 15.0862 23.21 15.9962 22Z" fill="white"/>
</svg>
