<svg width="20" height="20" viewBox="0 0 20 20" fill="none" xmlns="http://www.w3.org/2000/svg">
<path fill-rule="evenodd" clip-rule="evenodd" d="M4.00626 2.46974C5.70413 0.934413 7.95238 0 10.4177 0C13.066 0 15.4626 1.07812 17.197 2.82065L17.9349 1.89841C18.4696 3.59399 18.4869 5.39413 18.2161 7.01045C17.2196 6.36165 15.9802 5.77208 15.0704 5.48121L15.7969 4.5729C11.8117 -0.0905809 5.85532 1.72592 4.00626 2.46974ZM19.7888 7.61299C19.5058 9.59159 18.0961 15.6745 12.0789 16.8049L11.658 15.7198C10.9514 16.3651 9.82294 17.1471 8.7647 17.6888C10.0251 18.7329 11.5875 19.6169 13.3184 20L12.8904 18.8984C15.2619 18.2626 17.3912 16.7195 18.7149 14.4186C19.9476 12.2763 20.2653 9.85609 19.7887 7.61375L19.7888 7.61299ZM3.37761 7.45885L4.52516 7.63563C4.32204 6.69946 4.21092 5.32775 4.27256 4.13747C2.74136 4.71049 1.19619 5.62578 0 6.93805L1.1649 7.11745C0.527765 9.49489 0.795981 12.1171 2.11975 14.4179C3.35236 16.5602 5.28278 18.0458 7.4574 18.753C5.89059 17.5181 1.34455 13.2517 3.37761 7.45885ZM14.4789 9.61161C14.4789 11.8584 12.6569 13.6854 10.4183 13.6854C8.1806 13.6854 6.35776 11.8583 6.35776 9.61161C6.35776 7.36481 8.17802 5.53781 10.4183 5.53781C12.6587 5.53781 14.4789 7.36575 14.4789 9.61161ZM11.5372 9.64471C11.1943 9.44179 10.8228 9.35296 10.4652 9.26762C10.3436 9.23888 10.2204 9.20927 10.1006 9.17531C9.70825 9.06558 9.49123 8.93757 9.37146 8.74771C9.2482 8.54654 9.27771 8.31576 9.45653 8.13028C9.68481 7.89166 10.1857 7.77234 10.6761 7.8394C11.0806 7.89427 11.394 8.06409 11.5181 8.29224C11.5988 8.44639 11.7933 8.50386 11.9469 8.42113C12.1006 8.3384 12.1579 8.14506 12.0745 7.99092C11.8532 7.57899 11.3758 7.29423 10.7612 7.20976C10.7525 7.20801 10.7421 7.20714 10.7334 7.20627V6.63412C10.7334 6.4582 10.5928 6.31625 10.4157 6.31625C10.2412 6.31625 10.0997 6.4582 10.0997 6.63412V7.20279C9.6501 7.25592 9.25167 7.42747 8.99734 7.69048C8.61802 8.08758 8.55377 8.63537 8.83328 9.08473C9.09977 9.51059 9.55809 9.68388 9.92875 9.78751C10.0607 9.82408 10.1909 9.85543 10.3168 9.88592C10.6449 9.96429 10.9522 10.0383 11.216 10.1933C11.5615 10.3971 11.5824 10.6105 11.5633 10.7742C11.5398 10.9771 11.4079 11.1565 11.2134 11.254C10.6336 11.5432 9.50602 11.3977 9.22478 10.8787C9.13972 10.7246 8.94788 10.6688 8.79424 10.7533C8.6406 10.8378 8.58504 11.0302 8.66837 11.1844C8.92443 11.6529 9.493 11.9289 10.0989 12.0117V12.5908C10.0989 12.7659 10.2395 12.9087 10.4149 12.9087C10.5919 12.9087 10.7326 12.7659 10.7326 12.5908V12.0265C11.0095 12.0013 11.2742 11.9333 11.4956 11.8236C11.881 11.6311 12.1414 11.268 12.1926 10.8517C12.2351 10.5034 12.1561 10.0105 11.5364 9.64644L11.5372 9.64471ZM16.0953 9.61161C16.0953 12.7484 13.5449 15.308 10.4174 15.308C7.29084 15.308 4.73957 12.7493 4.73957 9.61161C4.73957 6.47483 7.28995 3.91524 10.4174 3.91524C13.544 3.91524 16.0953 6.47394 16.0953 9.61161ZM15.1127 9.61161C15.1127 7.01546 13.0068 4.90287 10.4192 4.90287C7.83165 4.90287 5.72313 7.0156 5.72313 9.61161C5.72313 12.2078 7.82899 14.3212 10.4192 14.3212C13.0085 14.3212 15.1127 12.2085 15.1127 9.61161Z" fill="#042E60"/>
</svg>
