<svg width="24" height="20" viewBox="0 0 24 20" fill="none" xmlns="http://www.w3.org/2000/svg">
<path fill-rule="evenodd" clip-rule="evenodd" d="M8.58783 6.71095C7.20688 6.71095 5.9632 5.89391 5.43532 4.63976C4.90639 3.38562 5.19883 1.94267 6.17437 0.983215C7.15096 0.0228863 8.61848 -0.263647 9.89391 0.255441C11.1682 0.774528 12.0002 1.99856 12.0002 3.35545C12.0002 5.20863 10.4724 6.71095 8.58783 6.71095ZM14.9793 15.1765V8.81749C14.9783 8.62751 14.822 8.47281 14.6288 8.47281H12.6651C12.4719 8.47281 12.3156 8.6275 12.3146 8.81749V14.1298H12.4159C13.1613 14.1267 13.8908 14.3478 14.5042 14.7642C14.6774 14.8835 14.8368 15.0228 14.9793 15.1765ZM21.3076 14.511V4.17681C21.3065 3.98682 21.1503 3.83316 20.9571 3.83316H18.9933C18.8001 3.83316 18.6439 3.98681 18.6428 4.17681V15.0207L21.3065 14.511H21.3076ZM18.1435 15.1173V6.49708C18.1424 6.3071 17.9861 6.15344 17.7929 6.1524H15.8292C15.636 6.15344 15.4797 6.30709 15.4787 6.49708V15.627L18.1424 15.1173H18.1435ZM11.8152 14.13V11.1368C11.8141 10.9468 11.6579 10.7931 11.4647 10.7931H9.50096C9.30775 10.7931 9.15149 10.9468 9.15044 11.1368V13.3948C9.18211 13.4146 9.21484 13.4343 9.24651 13.454C10.0204 13.9326 10.4015 14.1289 11.3612 14.1289L11.8152 14.13ZM10.1978 17.4936H14.3078C14.9571 17.4926 15.4829 16.9756 15.484 16.3371C15.484 16.2675 15.4787 16.199 15.4681 16.1294L21.411 14.9916C21.9558 14.8649 22.5185 14.8317 23.0738 14.893C23.5299 14.9688 23.8973 15.1847 23.9849 15.6675C24.0631 16.0319 23.8297 16.3901 23.4602 16.472L13.9614 19.7725C13.7703 19.841 13.5749 19.897 13.3754 19.9396C13.1822 19.9801 12.9858 19.9998 12.7884 19.9998H8.92532C8.4555 20.005 7.99098 19.9002 7.57078 19.6925C7.22661 19.5275 6.8592 19.326 6.48651 19.1236C5.68095 18.6845 4.86064 18.236 4.12897 18.0646C3.94738 18.0221 3.77002 17.9889 3.59158 17.9598C3.46383 17.939 3.3382 17.9214 3.21044 17.9037L3.21149 12.9172C3.52507 12.9027 3.80588 12.8871 4.07195 12.8726C5.8678 12.7719 6.9785 12.7106 8.43745 13.5443C8.64121 13.6606 8.81751 13.7696 8.98011 13.8703C9.70226 14.3178 10.1932 14.6209 11.3609 14.6209H12.4156C13.0575 14.6178 13.6856 14.8078 14.2157 15.166C14.6876 15.494 14.9832 15.9259 14.9832 16.3381V16.337C14.9821 16.7035 14.6802 17.0004 14.3075 17.0015H10.1974C10.0591 17.0015 9.94719 17.1115 9.94719 17.2475C9.94719 17.3835 10.0591 17.4936 10.1974 17.4936L10.1978 17.4936ZM0.260773 18.7083H2.45045C2.59403 18.7083 2.71122 18.5941 2.71122 18.4519V12.2226C2.71122 12.0814 2.59403 11.9672 2.45045 11.9662H0.260773C0.117189 11.9672 0.00105408 12.0814 0 12.2226V18.4519C0.00105597 18.5941 0.117189 18.7083 0.260773 18.7083ZM9.51774 2.12015C9.38155 1.8523 9.13238 1.65608 8.83678 1.58342V1.26263C8.83678 1.12662 8.72487 1.01761 8.58762 1.01761C8.44931 1.01761 8.3374 1.12662 8.3374 1.26263V1.58342C7.87285 1.69658 7.54663 2.10668 7.54557 2.578C7.54452 2.82924 7.64798 3.07115 7.83169 3.24763C8.02806 3.43035 8.2751 3.55181 8.54116 3.59646C8.70903 3.62345 8.86528 3.6982 8.98987 3.81136C9.07856 3.89546 9.12818 4.01277 9.12818 4.13423C9.12818 4.32629 9.02155 4.50381 8.85052 4.5983C8.67949 4.69277 8.47046 4.68862 8.3026 4.58792C8.21708 4.53601 8.1474 4.46126 8.102 4.37197C8.04076 4.25154 7.89084 4.20275 7.76837 4.26296C7.64485 4.32318 7.59522 4.4706 7.65646 4.59104C7.79265 4.85889 8.04182 5.05511 8.33742 5.12777V5.44856C8.33742 5.58457 8.44933 5.69358 8.58764 5.69358C8.72489 5.69358 8.8368 5.58457 8.8368 5.44856V5.12777C9.3024 5.01461 9.62863 4.60451 9.62863 4.13422C9.62968 3.88194 9.52727 3.64004 9.34251 3.46356C9.14719 3.28084 8.90015 3.15938 8.63304 3.11473C8.46517 3.08774 8.30998 3.01299 8.18541 2.89983C8.09567 2.81573 8.04605 2.69946 8.04605 2.578C8.04605 2.3849 8.15268 2.20737 8.3237 2.11289C8.49473 2.01945 8.70484 2.02257 8.87163 2.12327C8.9582 2.17622 9.02683 2.24993 9.07223 2.33922C9.13452 2.45964 9.28338 2.50948 9.40691 2.44823C9.52938 2.38801 9.57897 2.24163 9.51774 2.12015Z" fill="white"/>
</svg>
