<svg width="24" height="21" viewBox="0 0 24 21" fill="none" xmlns="http://www.w3.org/2000/svg">
<path d="M8.39707 7.07631C10.2927 7.07631 11.8356 5.51122 11.8356 3.58814C11.8356 1.66518 10.2928 0.0999756 8.39707 0.0999756C6.50146 0.0999756 4.95854 1.66507 4.95854 3.58814C4.95854 5.51111 6.50033 7.07631 8.39707 7.07631ZM8.39707 0.575963C10.0345 0.575963 11.3653 1.92716 11.3653 3.58708C11.3653 5.24817 10.0334 6.59819 8.39707 6.59819C6.75961 6.59819 5.4288 5.24699 5.4288 3.58708C5.42777 1.92705 6.75974 0.575963 8.39707 0.575963ZM7.41893 2.8349C7.41893 2.37058 7.73572 1.97932 8.16154 1.87184V1.5609C8.16154 1.42943 8.26645 1.32301 8.39605 1.32301C8.52564 1.32301 8.63055 1.42943 8.63055 1.5609V1.87184C8.90518 1.93966 9.13969 2.12643 9.27031 2.39145C9.32791 2.50935 9.28163 2.65229 9.1654 2.71072C9.04917 2.77019 8.90827 2.7222 8.85067 2.60429C8.76427 2.42796 8.58942 2.31945 8.39604 2.31945C8.11628 2.31945 7.88794 2.55108 7.88794 2.83489C7.88794 3.14059 8.18519 3.30545 8.43925 3.35449C8.99775 3.46092 9.37318 3.85845 9.37318 4.34258C9.37318 4.8069 9.05639 5.19816 8.63057 5.30564V5.61658C8.63057 5.74805 8.52566 5.85447 8.39606 5.85447C8.26647 5.85447 8.16156 5.74805 8.16156 5.61658V5.30668C7.88693 5.23886 7.65242 5.05209 7.5218 4.78708C7.4642 4.66917 7.51048 4.52623 7.62671 4.4678C7.74294 4.40833 7.88384 4.45632 7.94144 4.57423C8.02784 4.75056 8.20269 4.85907 8.39607 4.85907C8.67583 4.85907 8.90417 4.62744 8.90417 4.34363C8.90417 4.03793 8.60692 3.87307 8.35286 3.82403C7.79436 3.71552 7.41893 3.31799 7.41893 2.8349ZM23.0797 15.436C23.0149 15.0666 22.8369 14.7797 22.552 14.5836C22.1026 14.2737 21.4083 14.2038 20.4425 14.3665V4.36252C20.4425 4.05994 20.1998 3.81473 19.9025 3.81473H17.6603C17.362 3.81473 17.1203 4.06097 17.1203 4.36252V5.97246H14.8071C14.5088 5.97246 14.2671 6.2187 14.2671 6.52025V8.13019H11.9539C11.6556 8.13019 11.4139 8.37643 11.4139 8.67797V10.2879H9.10068C8.8024 10.2879 8.56069 10.5342 8.56069 10.8357V13.0978C8.55966 13.0967 8.55863 13.0967 8.5576 13.0957C7.09501 12.2339 5.97698 12.2985 4.28412 12.3956C4.04138 12.4092 3.78837 12.4238 3.523 12.4363V12.2495C3.523 11.8551 3.20725 11.5348 2.81845 11.5348L0.804565 11.5358C0.415765 11.5358 0.100006 11.8561 0.100006 12.2506V18.1603C0.100006 18.5547 0.415765 18.8751 0.804565 18.8751H2.81845C3.20725 18.8751 3.523 18.5547 3.523 18.1603V18.1175C3.76163 18.152 3.9982 18.1885 4.25532 18.2511C4.86832 18.3993 5.59861 18.8104 6.30522 19.2089C6.64362 19.3999 6.99332 19.596 7.32348 19.7598C7.79764 19.9946 8.24506 20.1 8.7727 20.1H12.3252C12.8138 20.1 13.2067 19.9831 13.5595 19.8569L22.295 16.7266C22.8823 16.5159 23.1835 16.0213 23.0797 15.436ZM17.6603 4.29037H19.9025C19.9406 4.29037 19.9735 4.32376 19.9735 4.36237V14.4529L17.5893 14.9235V4.36229C17.5893 4.32368 17.6222 4.29037 17.6603 4.29037ZM14.8071 6.44914H17.1203V15.0174L14.7361 15.488V6.52118C14.7361 6.48153 14.769 6.44914 14.8071 6.44914ZM11.9539 8.60687H14.2671V14.9683C13.7384 14.4279 12.8858 14.0543 11.9827 14.0543H11.8829V8.67875C11.8829 8.64014 11.9158 8.60687 11.9539 8.60687ZM9.03064 10.8366C9.03064 10.798 9.06252 10.7646 9.10161 10.7646H11.4148V14.0543H11.0147C10.0736 14.0543 9.69613 13.8133 9.0718 13.4147C9.05946 13.4064 9.04403 13.397 9.03066 13.3886L9.03064 10.8366ZM3.05382 18.1602C3.05382 18.2917 2.94788 18.3991 2.81828 18.3991H0.804404C0.674806 18.3991 0.568867 18.2917 0.568867 18.1602L0.569896 12.2504C0.569896 12.1189 0.675835 12.0115 0.805432 12.0115H2.81931C2.94891 12.0115 3.05485 12.1179 3.05485 12.2504L3.05382 18.1602ZM22.1384 16.2769L13.4029 19.4082C13.0408 19.5376 12.7199 19.6242 12.3249 19.6242H8.77344C8.32087 19.6242 7.93723 19.5344 7.52992 19.332C7.21005 19.1734 6.88194 18.9887 6.53325 18.7926C5.79886 18.3783 5.03979 17.9516 4.36404 17.7878C4.06268 17.7147 3.7963 17.6741 3.52269 17.6355V12.914C3.79835 12.9005 4.0596 12.8869 4.31056 12.8723C5.97577 12.7763 6.98076 12.7189 8.32179 13.5088C8.50693 13.6173 8.66635 13.7195 8.82165 13.8187C9.46963 14.2319 9.93763 14.5313 11.0145 14.5313H11.9834C13.3113 14.5313 14.3408 15.4036 14.3408 16.1548C14.3408 16.5002 14.0641 16.7809 13.7237 16.7809L9.94284 16.7798C9.81324 16.7798 9.70833 16.8863 9.70833 17.0177C9.70833 17.1492 9.81325 17.2556 9.94284 17.2556H13.7226C14.3212 17.2556 14.8088 16.761 14.8088 16.1538C14.8088 16.0891 14.8036 16.0255 14.7954 15.9618L20.258 14.8829C21.2279 14.6857 21.9108 14.717 22.2873 14.9768C22.4663 15.101 22.5742 15.2784 22.6174 15.5205C22.7018 15.9994 22.3533 16.1997 22.1384 16.2769Z" fill="#828282" stroke="#828282" stroke-width="0.2"/>
</svg>
