<svg width="17" height="10" viewBox="0 0 17 10" fill="none" xmlns="http://www.w3.org/2000/svg">
<path d="M8.49929 0.000695648C3.7642 0.000695648 0.0543284 4.84021 0.0543284 4.84021V4.84091C0.0536227 4.8423 0.0522116 4.84438 0.0515059 4.84577C0.0430393 4.85827 0.0359835 4.87078 0.029634 4.88467C0.0232837 4.89578 0.0176392 4.90759 0.0127003 4.9194C0.00987804 4.9319 0.00705577 4.9451 0.00564455 4.9583C0.00282227 4.9715 0.000705523 4.98539 0 4.99928C0.000705523 5.01387 0.00282227 5.02776 0.00564455 5.04165C0.00705577 5.05485 0.00987804 5.06735 0.0127003 5.07986C0.0183449 5.09306 0.0239894 5.10556 0.0310447 5.11737C0.0373949 5.12987 0.043745 5.14237 0.0522122 5.15349C0.0529177 5.15557 0.0536232 5.15696 0.0550344 5.15835C0.0550344 5.15835 3.7649 10 8.5 10C13.2351 10 16.945 5.15835 16.945 5.15835C16.9478 5.15488 16.9506 5.15071 16.9527 5.14724C16.9563 5.14237 16.9598 5.13751 16.9633 5.13265C16.9732 5.11598 16.9817 5.09861 16.9873 5.07986C16.988 5.07847 16.9887 5.07638 16.9894 5.07499C16.9922 5.06666 16.9937 5.05832 16.9958 5.04929V5.0479C16.9972 5.03748 16.9986 5.02776 16.9993 5.01803V5.01595C17 5.01039 17 5.00484 17 4.99928C17 4.99303 17 4.98678 16.9993 4.98052V4.97705C16.9979 4.96733 16.9972 4.9583 16.9951 4.94927C16.9937 4.94093 16.9915 4.9319 16.9887 4.92356V4.92148C16.9852 4.91245 16.9817 4.90342 16.9774 4.89439C16.9767 4.89231 16.976 4.89092 16.9753 4.88953C16.9718 4.88119 16.9675 4.87355 16.9633 4.86591C16.9633 4.86522 16.9626 4.86522 16.9626 4.86452C16.9598 4.86035 16.957 4.85549 16.9534 4.85132C16.9513 4.84716 16.9485 4.84368 16.9457 4.83952C16.9457 4.83952 13.2351 0 8.50071 0L8.49929 0.000695648ZM8.49929 0.524445C12.3891 0.524445 15.7158 4.20383 16.3905 4.99995C15.7152 5.79739 12.3885 9.47688 8.49929 9.47688C4.61007 9.47688 1.28349 5.79679 0.608126 4.99995C1.28265 4.2039 4.60934 0.524445 8.49929 0.524445ZM8.49929 1.54555C6.56823 1.54555 4.99751 3.09598 4.99751 5.0007C4.99751 6.9061 6.5681 8.45655 8.49929 8.45655C10.4305 8.45655 12.0011 6.90613 12.0011 5.0007C12.0011 3.09526 10.4305 1.54555 8.49929 1.54555ZM8.49929 2.06861C10.1426 2.06861 11.4697 3.37799 11.4697 5.00059C11.4697 6.62394 10.1425 7.93329 8.49929 7.93329C6.85609 7.93329 5.52891 6.62391 5.52891 5.00059C5.52891 3.37728 6.85609 2.06861 8.49929 2.06861Z" fill="white"/>
</svg>
