<svg width="15" height="20" viewBox="0 0 15 20" fill="none" xmlns="http://www.w3.org/2000/svg">
<path d="M14.6667 19.3333C14.6667 19.4209 14.6495 19.5076 14.616 19.5885C14.5825 19.6694 14.5334 19.7429 14.4715 19.8048C14.4096 19.8668 14.3361 19.9159 14.2552 19.9494C14.1743 19.9828 14.0876 20 14 20H0.666667C0.579105 20 0.492392 19.9828 0.411485 19.9494C0.330579 19.9159 0.257066 19.8668 0.195151 19.8048C0.133235 19.7429 0.0841307 19.6694 0.0506453 19.5885C0.0171599 19.5076 -4.98446e-05 19.4209 1.08434e-07 19.3333C1.08434e-07 17.3884 0.772617 15.5232 2.14788 14.1479C3.52315 12.7726 5.38841 12 7.33333 12C9.27825 12 11.1435 12.7726 12.5188 14.1479C13.894 15.5232 14.6667 17.3884 14.6667 19.3333ZM7.33333 2.66667C6.54221 2.66667 5.76885 2.90126 5.11105 3.34079C4.45326 3.78031 3.94057 4.40503 3.63782 5.13593C3.33506 5.86684 3.25585 6.6711 3.41019 7.44703C3.56453 8.22295 3.9455 8.93568 4.50491 9.49509C5.06432 10.0545 5.77705 10.4355 6.55297 10.5898C7.3289 10.7441 8.13316 10.6649 8.86407 10.3622C9.59497 10.0594 10.2197 9.54674 10.6592 8.88895C11.0987 8.23115 11.3333 7.45779 11.3333 6.66667C11.3322 5.60616 10.9104 4.58942 10.1605 3.83952C9.41059 3.08963 8.39384 2.66783 7.33333 2.66667ZM1.33333 8.66667C1.68681 8.66621 2.02569 8.52559 2.27564 8.27564C2.52559 8.02569 2.66621 7.68681 2.66667 7.33333V6C2.66667 5.64638 2.52619 5.30724 2.27614 5.05719C2.02609 4.80714 1.68696 4.66667 1.33333 4.66667C0.979711 4.66667 0.640573 4.80714 0.390524 5.05719C0.140476 5.30724 1.08434e-07 5.64638 1.08434e-07 6V7.33333C0.00045874 7.68681 0.141082 8.02569 0.391031 8.27564C0.64098 8.52559 0.979852 8.66621 1.33333 8.66667ZM7.33333 1.33333C8.22945 1.33425 9.11086 1.5611 9.89608 1.99291C10.6813 2.42472 11.345 3.04754 11.8257 3.80379C12.2079 3.54488 12.6512 3.39043 13.1115 3.35575C12.5299 2.33646 11.6891 1.48915 10.6743 0.89979C9.6595 0.31043 8.50686 0 7.33333 0C6.15981 0 5.00717 0.31043 3.99237 0.89979C2.97757 1.48915 2.13673 2.33646 1.55517 3.35575C2.01551 3.39043 2.45878 3.54488 2.84098 3.80379C3.32171 3.04754 3.98537 2.42472 4.77059 1.99291C5.5558 1.5611 6.43722 1.33425 7.33333 1.33333ZM13.3333 4.66667C12.9799 4.66713 12.641 4.80775 12.391 5.0577C12.1411 5.30765 12.0005 5.64652 12 6V7.33333C12.0004 7.55582 12.0565 7.77466 12.1632 7.96988C12.2699 8.16509 12.4239 8.33045 12.611 8.45085C12.5092 8.89054 12.2617 9.28289 11.9087 9.56414C11.5557 9.84538 11.118 9.99899 10.6667 10C10.4899 10 10.3203 10.0702 10.1953 10.1953C10.0702 10.3203 10 10.4899 10 10.6667C10 10.8435 10.0702 11.013 10.1953 11.1381C10.3203 11.2631 10.4899 11.3333 10.6667 11.3333C11.4606 11.3312 12.2276 11.0454 12.8294 10.5275C13.4311 10.0096 13.828 9.29379 13.9485 8.50907C14.1642 8.39738 14.3452 8.22875 14.4718 8.02147C14.5984 7.8142 14.6658 7.57621 14.6667 7.33333V6C14.6662 5.64652 14.5256 5.30765 14.2756 5.0577C14.0257 4.80775 13.6868 4.66713 13.3333 4.66667Z" fill="#042E60"/>
</svg>
