<svg width="21" height="20" viewBox="0 0 21 20" fill="none" xmlns="http://www.w3.org/2000/svg">
<path d="M10.8379 0.200195C16.3429 0.200408 20.7997 4.58991 20.7998 9.99805C20.7989 16.6778 14.1638 21.3559 7.76758 19.3184H7.7666C7.52725 19.2428 7.39097 19.1027 7.32324 18.9492C7.25366 18.7912 7.24996 18.6026 7.30762 18.4258C7.36543 18.2488 7.48106 18.0963 7.63281 18.0068C7.78047 17.9198 7.97503 17.8843 8.21387 17.96C13.6652 19.6884 19.3359 15.7145 19.3359 9.99707C19.3358 5.37361 15.5281 1.63201 10.8369 1.63184C4.81271 1.63184 0.741886 7.62041 2.92871 13.0732L3.15137 13.627L3.30762 13.0508L3.38574 12.7637C3.45019 12.5269 3.58464 12.3857 3.73926 12.3105C3.89867 12.2331 4.09357 12.2199 4.27832 12.2686C4.46297 12.3173 4.62374 12.4242 4.72168 12.5684C4.81657 12.7081 4.86123 12.8953 4.79688 13.1318L4.12695 15.5908C4.03691 15.9229 3.71998 16.141 3.37891 16.1211L3.23242 16.0977L0.733398 15.4395C0.490089 15.3754 0.346133 15.2423 0.270508 15.0918C0.192755 14.9369 0.179784 14.748 0.228516 14.5684C0.277395 14.3886 0.384937 14.2297 0.532227 14.1328C0.675595 14.0386 0.869025 13.9945 1.1123 14.0586L1.45215 14.1475L1.85352 14.2539L1.68652 13.874C-1.12413 7.47957 3.63012 0.200195 10.8379 0.200195ZM10.667 4.16211C10.7604 4.16217 10.8467 4.1936 10.9062 4.24512C10.9615 4.29309 11.005 4.36764 11.0049 4.48535V10.2871L11.082 10.3467L14.0557 12.6582C14.15 12.7314 14.1819 12.8108 14.1855 12.8809C14.1894 12.9563 14.1612 13.0396 14.1045 13.1104C14.0478 13.181 13.9709 13.2288 13.8926 13.2432C13.819 13.2566 13.7313 13.2433 13.6367 13.1699H13.6357L10.4971 10.7295L10.4902 10.7236L10.4814 10.7188L10.418 10.667C10.3616 10.6079 10.3281 10.5287 10.3281 10.4424V4.48535C10.3282 4.36745 10.3721 4.29312 10.4277 4.24512C10.4875 4.19354 10.5735 4.1621 10.667 4.16211Z" fill="#828282" stroke="white" stroke-width="0.4"/>
</svg>
