<svg width="21" height="20" viewBox="0 0 21 20" fill="none" xmlns="http://www.w3.org/2000/svg">
<path fill-rule="evenodd" clip-rule="evenodd" d="M7.70681 19.509C6.54169 19.1415 7.11155 17.401 8.27401 17.7693C13.6025 19.4589 19.1361 15.5733 19.1361 9.99723C19.1361 5.4871 15.4206 1.83193 10.8366 1.83193C4.9504 1.83193 0.981769 7.68056 3.11477 12.9988L3.1928 12.7116C3.50929 11.5472 5.3065 12.0207 4.99 13.1843L4.32021 15.6433C4.18783 16.1315 3.67759 16.4213 3.1814 16.2911L0.682795 15.633C-0.500725 15.3216 -0.0194309 13.5535 1.16321 13.8648L1.50336 13.9545C-1.3669 7.42451 3.48907 0 10.8375 0C16.4501 0 21 4.47635 21 9.99819C20.9991 16.819 14.2266 21.5858 7.70681 19.509ZM10.1282 4.48574V10.4424C10.1282 10.6295 10.2264 10.7934 10.3746 10.8874L13.5139 13.3284C14.0662 13.757 14.7308 12.929 14.1784 12.5004L11.2047 10.1888V4.48587C11.2056 3.78809 10.1282 3.78796 10.1282 4.48574Z" fill="white"/>
</svg>
