<svg width="24" height="24" viewBox="0 0 24 24" fill="none" xmlns="http://www.w3.org/2000/svg">
<path d="M12 2.46649C12.1778 2.46649 12.3508 2.52531 12.4912 2.63446L20.4912 8.85809C20.5874 8.93293 20.6653 9.02888 20.7188 9.13837C20.7722 9.24784 20.7999 9.36809 20.7998 9.48993V19.9997C20.7998 20.2119 20.7155 20.4161 20.5654 20.5661C20.4154 20.7159 20.212 20.8005 20 20.8005H4C3.78799 20.8005 3.58457 20.7159 3.43457 20.5661C3.28454 20.4161 3.2002 20.2119 3.2002 19.9997V9.48993L3.20508 9.39911C3.21534 9.30869 3.24113 9.22053 3.28125 9.13837C3.33475 9.02888 3.41262 8.93293 3.50879 8.85809L11.5088 2.63446C11.6492 2.52531 11.8222 2.46649 12 2.46649ZM16.7998 15.1999V16.8005H7.2002V15.1999H16.7998ZM19.2002 9.88055L19.123 9.82001L12.123 4.37567L12 4.28094L11.877 4.37567L4.87695 9.82001L4.7998 9.88055V19.1999H19.2002V9.88055Z" stroke="#828282" stroke-width="0.4"/>
</svg>
