<svg width="18" height="18" viewBox="0 0 18 18" fill="none" xmlns="http://www.w3.org/2000/svg">
<path d="M13.1086 0H4.06818C2.98975 0.00167366 1.95596 0.430822 1.19339 1.19339C0.430822 1.95596 0.00167366 2.98975 0 4.06818V13.1086C0.00167366 14.187 0.430822 15.2208 1.19339 15.9834C1.95596 16.7459 2.98975 17.1751 4.06818 17.1768H13.1086C14.187 17.1751 15.2208 16.7459 15.9834 15.9834C16.7459 15.2208 17.1751 14.187 17.1768 13.1086V4.06818C17.1751 2.98975 16.7459 1.95596 15.9834 1.19339C15.2208 0.430822 14.187 0.00167366 13.1086 0ZM8.13636 5.21631C8.13636 5.09643 8.18399 4.98146 8.26876 4.89669C8.35353 4.81192 8.4685 4.76429 8.58838 4.76429C8.70827 4.76429 8.82324 4.81192 8.90801 4.89669C8.99278 4.98146 9.0404 5.09643 9.0404 5.21631V7.17808C9.0404 7.29796 8.99278 7.41294 8.90801 7.49771C8.82324 7.58248 8.70827 7.6301 8.58838 7.6301C8.4685 7.6301 8.35353 7.58248 8.26876 7.49771C8.18399 7.41294 8.13636 7.29796 8.13636 7.17808V5.21631ZM8.58838 12.4125C7.76041 12.4127 6.95474 12.1442 6.29244 11.6473C5.63015 11.1504 5.14701 10.452 4.91565 9.65696C4.68429 8.86197 4.71719 8.01336 5.00943 7.23868C5.30166 6.46399 5.83743 5.80507 6.53621 5.36096C6.63675 5.30361 6.75545 5.28701 6.86786 5.31458C6.98027 5.34216 7.07782 5.4118 7.14041 5.50916C7.203 5.60652 7.22586 5.72418 7.20427 5.83789C7.18269 5.9516 7.11831 6.0527 7.02439 6.12035C6.49035 6.45907 6.0807 6.96201 5.85704 7.55354C5.63339 8.14507 5.60782 8.79323 5.78417 9.40054C5.96052 10.0079 6.32927 10.5415 6.83497 10.9213C7.34067 11.301 7.95598 11.5063 8.58838 11.5063C9.22079 11.5063 9.8361 11.301 10.3418 10.9213C10.8475 10.5415 11.2162 10.0079 11.3926 9.40054C11.569 8.79323 11.5434 8.14507 11.3197 7.55354C11.0961 6.96201 10.6864 6.45907 10.1524 6.12035C10.0585 6.0527 9.99408 5.9516 9.97249 5.83789C9.95091 5.72418 9.97377 5.60652 10.0364 5.50916C10.0989 5.4118 10.1965 5.34216 10.3089 5.31458C10.4213 5.28701 10.54 5.30361 10.6406 5.36096C11.3393 5.80507 11.8751 6.46399 12.1673 7.23868C12.4596 8.01336 12.4925 8.86197 12.2611 9.65696C12.0298 10.452 11.5466 11.1504 10.8843 11.6473C10.222 12.1442 9.41636 12.4127 8.58838 12.4125Z" fill="#FD003A"/>
</svg>
