<svg width="16" height="20" viewBox="0 0 16 20" fill="none" xmlns="http://www.w3.org/2000/svg">
<path fill-rule="evenodd" clip-rule="evenodd" d="M2.78235 15.3233C2.6421 15.3233 2.52852 15.211 2.52852 15.0723C2.52852 14.9337 2.6421 14.8214 2.78235 14.8214H6.86245C7.0027 14.8214 7.11628 14.9337 7.11628 15.0723C7.11628 15.211 7.0027 15.3233 6.86245 15.3233H2.78235ZM2.78235 16.629C2.6421 16.629 2.52852 16.5167 2.52852 16.378C2.52852 16.2393 2.6421 16.127 2.78235 16.127H6.86245C7.0027 16.127 7.11628 16.2393 7.11628 16.378C7.11628 16.5167 7.0027 16.629 6.86245 16.629H2.78235ZM2.78235 17.9347C2.6421 17.9347 2.52852 17.8224 2.52852 17.6837C2.52852 17.544 2.6421 17.4317 2.78235 17.4317H6.86245C7.0027 17.4317 7.11628 17.544 7.11628 17.6837C7.11628 17.8224 7.0027 17.9347 6.86245 17.9347H2.78235ZM4.77742 7.30762C4.73495 7.30762 4.69544 7.33301 4.67964 7.37207C4.66285 7.41113 4.67174 7.45605 4.70137 7.48633L5.64854 8.42286C5.69101 8.46387 5.75817 8.46387 5.80064 8.42286L7.69202 6.55272H7.69103C7.7335 6.51073 7.7335 6.44432 7.69103 6.40233C7.64955 6.36132 7.5814 6.36132 7.53991 6.40233L5.90335 8.02052C5.85594 8.06739 5.79076 8.09474 5.72359 8.09474C5.65643 8.09474 5.59223 8.06739 5.54384 8.02052L4.85346 7.33789C4.83271 7.31738 4.80507 7.30664 4.77742 7.30762ZM4.34382 6.98241C4.58382 6.74511 4.97198 6.74511 5.21198 6.98241L5.72456 7.48924L7.18136 6.04881C7.42136 5.8115 7.8105 5.8115 8.0505 6.04783C8.2905 6.28514 8.2905 6.66991 8.0505 6.90721L6.15912 8.77735H6.16011C5.91912 9.01368 5.53096 9.01368 5.29097 8.77735L4.34478 7.84179C4.10478 7.60449 4.10478 7.21971 4.34478 6.98241L4.34382 6.98241ZM6.06532 11.8927C4.37346 11.0157 2.45348 10.0196 2.41479 4.1309L6.19654 2.93069L9.97829 4.1309C9.93977 10.0197 8.01976 11.0157 6.32777 11.8927L6.19641 11.9611L6.06532 11.8927ZM6.07618 12.464C5.98828 12.4181 5.91025 12.3771 5.83124 12.3361C3.9942 11.3839 1.90816 10.3019 1.90816 3.94827C1.90816 3.83889 1.97828 3.74319 2.08297 3.70999L6.11857 2.42776H6.11956C6.16993 2.41213 6.22425 2.41213 6.27462 2.42776L10.3102 3.70901V3.70999C10.4189 3.74417 10.491 3.84671 10.485 3.95999C10.4821 10.3018 8.39713 11.3828 6.56195 12.335C6.48294 12.376 6.40294 12.4171 6.31504 12.4639L6.31603 12.463C6.24096 12.503 6.15109 12.503 6.07603 12.463L6.07618 12.464ZM7.34236 10.6534C7.01842 10.8888 6.67471 11.0978 6.31618 11.2784C6.24112 11.3185 6.15124 11.3185 6.07618 11.2784C5.71666 11.0978 5.37297 10.8878 5.04802 10.6515C4.70234 10.3937 4.40209 10.0802 4.16012 9.72473C3.69889 8.99327 3.38777 8.17785 3.24357 7.32727C3.08357 6.46789 2.99468 5.59776 2.9769 4.72475C2.96998 4.6105 3.04208 4.506 3.1527 4.47085L6.11853 3.52945V3.52847C6.1689 3.51285 6.22322 3.51285 6.27359 3.52847L9.24043 4.46988C9.34809 4.50406 9.42019 4.60367 9.41722 4.71499C9.40043 5.59195 9.31154 6.465 9.15055 7.32726C9.00636 8.17784 8.69425 8.99329 8.23302 9.72472C7.99005 10.0812 7.68903 10.3947 7.34236 10.6534ZM6.19567 10.7755C5.90233 10.6241 5.62185 10.4503 5.35616 10.255C5.05394 10.0294 4.79122 9.755 4.57987 9.44445C4.15615 8.76769 3.87171 8.01574 3.74036 7.23056C3.59517 6.45811 3.51023 5.67488 3.48752 4.88875L6.1957 4.02937L8.90388 4.88875H8.90289C8.88018 5.67488 8.79524 6.45808 8.65005 7.23056C8.51869 8.01572 8.23426 8.76767 7.81153 9.44445C7.59918 9.755 7.33745 10.0294 7.03523 10.255C6.76955 10.4493 6.48904 10.6232 6.19671 10.7755H6.19567ZM8.33593 13.378H12.5768C12.643 13.378 12.7082 13.4044 12.7556 13.4513C12.803 13.4981 12.8297 13.5616 12.8297 13.628V17.8213C12.8297 17.8877 12.803 17.9512 12.7556 17.998C12.7082 18.0449 12.643 18.0713 12.5768 18.0713H8.33668C8.19742 18.0713 8.08384 17.959 8.08384 17.8213V13.6288C8.08384 13.4911 8.19742 13.3788 8.33668 13.3788L8.33593 13.378ZM12.324 13.88H8.59054V17.5705H12.324V13.88ZM0 20H14.6481V1.33791H0V20ZM15.1556 18.6621H16V0H1.35189V0.834954H14.9027C14.9698 0.834954 15.034 0.861322 15.0814 0.908197C15.1288 0.955072 15.1555 1.01855 15.1555 1.08496L15.1556 18.6621ZM9.92579 12.4931H12.4335C12.5737 12.4931 12.6873 12.3808 12.6873 12.2421C12.6873 12.1034 12.5737 11.9911 12.4335 11.9911H9.92579C9.78653 11.9911 9.67196 12.1034 9.67196 12.2421C9.67196 12.3808 9.78653 12.4931 9.92579 12.4931ZM10.7564 11.0839H10.7574C10.6172 11.0839 10.5036 10.9716 10.5036 10.8329C10.5036 10.6942 10.6172 10.5819 10.7574 10.5819H12.4335C12.5737 10.5819 12.6873 10.6942 12.6873 10.8329C12.6873 10.9716 12.5737 11.0839 12.4335 11.0839H10.7564ZM11.0172 9.6747C10.8769 9.6747 10.7633 9.56239 10.7633 9.42372C10.7633 9.28505 10.8769 9.17275 11.0172 9.17275H12.4335H12.4325C12.5727 9.17275 12.6863 9.28505 12.6863 9.42372C12.6863 9.5624 12.5727 9.6747 12.4325 9.6747H11.0172ZM11.3164 8.26552C11.1762 8.26552 11.0626 8.15321 11.0626 8.01454C11.0626 7.87587 11.1762 7.76356 11.3164 7.76356H12.4345H12.4335C12.5737 7.76356 12.6873 7.87587 12.6873 8.01454C12.6873 8.15321 12.5737 8.26552 12.4335 8.26552H11.3164ZM11.7954 6.85633C11.6552 6.85633 11.5416 6.74403 11.5416 6.60536C11.5416 6.46669 11.6552 6.35438 11.7954 6.35438H12.4344H12.4334C12.5737 6.35438 12.6873 6.46669 12.6873 6.60536C12.6873 6.74403 12.5737 6.85633 12.4334 6.85633H11.7954ZM2.78214 14.0176C2.64189 14.0176 2.52831 13.9053 2.52831 13.7666C2.52831 13.628 2.64189 13.5157 2.78214 13.5157H6.86224C7.00249 13.5157 7.11607 13.628 7.11607 13.7666C7.11607 13.9053 7.00249 14.0176 6.86224 14.0176H2.78214Z" fill="#042E60"/>
</svg>
