<svg width="15" height="20" viewBox="0 0 15 20" fill="none" xmlns="http://www.w3.org/2000/svg">
<path d="M7.5 10.0146C9.44527 10.0146 11.1947 10.5562 12.4482 11.4053V11.4043C13.8545 12.3574 14.4998 13.5853 14.5 14.7568C14.5 15.9285 13.8547 17.1571 12.4482 18.1104C11.0946 19.0279 9.30873 19.5 7.5 19.5C5.69127 19.5 3.90538 19.0279 2.55176 18.1104C1.14546 17.1573 0.500165 15.9293 0.5 14.7578C0.5 13.5862 1.14528 12.3575 2.55176 11.4043C3.80517 10.5546 5.55379 10.0147 7.5 10.0146ZM7.5 0.5C10.7755 0.5 12.4436 4.52046 10.1133 6.86816C7.7952 9.20295 3.80176 7.54635 3.80176 4.22949C3.80176 2.23078 5.3587 0.604708 7.30957 0.504883L7.5 0.5Z" stroke="#828282"/>
</svg>
