<svg width="15" height="20" viewBox="0 0 15 20" fill="none" xmlns="http://www.w3.org/2000/svg">
<path d="M11.0274 0.000242803H11.1352C11.2055 0.000242803 11.2719 0.0285236 11.3201 0.0784851L14.9143 3.76158V3.76064C14.9441 3.79364 14.9644 3.83323 14.974 3.87659H12.7864C11.8149 3.87565 11.0283 3.10549 11.0273 2.15433L11.0274 0.000242803ZM11.6619 16.496H3.24759C2.93179 16.5158 2.68627 16.7731 2.68627 17.0823C2.68627 17.3925 2.93179 17.6499 3.24759 17.6696H11.6619C11.8275 17.68 11.9902 17.6234 12.1115 17.5122C12.2328 17.401 12.3012 17.2454 12.3012 17.0824C12.3012 16.9202 12.2328 16.7647 12.1115 16.6535C11.9902 16.5422 11.8275 16.4847 11.6619 16.496ZM15 4.37981V18.206L14.999 18.2051C14.9971 18.6849 14.7988 19.143 14.4502 19.4805C14.1017 19.8171 13.6299 20.0037 13.1408 19.9999H1.84287C0.82612 19.9999 0.000961292 19.193 0 18.1975V1.80241C0.000962771 0.806942 0.82612 0 1.84287 0H10.5142V2.15402C10.5152 3.38231 11.5319 4.37778 12.7865 4.37874L15 4.37981ZM2.16256 2.87153L2.1616 2.87058C2.1616 2.93751 2.18856 3.00162 2.2367 3.04875C2.28484 3.09588 2.35032 3.12228 2.41868 3.12228H5.19163C5.33317 3.12228 5.44776 3.0101 5.44776 2.87058C5.44776 2.732 5.33318 2.61982 5.19163 2.61982H2.3928C2.32251 2.61982 2.25607 2.64715 2.20793 2.69711C2.15883 2.74613 2.13283 2.81212 2.13572 2.88094L2.16256 2.87153ZM4.30583 11.76C4.30583 11.6931 4.27886 11.629 4.23072 11.5818C4.18258 11.5347 4.11711 11.5083 4.04875 11.5083C3.27464 11.5045 2.57368 11.958 2.27425 12.6574C1.97482 13.3569 2.13561 14.1638 2.68248 14.7021C3.2284 15.2394 4.05163 15.4016 4.76797 15.1122C5.4843 14.8228 5.95129 14.1393 5.95129 13.3814C5.95129 13.2419 5.83672 13.1297 5.69421 13.1297C5.55267 13.1297 5.43809 13.2419 5.43809 13.3814C5.43809 13.9357 5.09532 14.4363 4.57154 14.6474C4.04776 14.8595 3.44503 14.7398 3.04546 14.3458C2.64588 13.9527 2.5284 13.3616 2.74891 12.8497C2.96844 12.3379 3.48164 12.007 4.04872 12.0107C4.11708 12.0107 4.18256 11.9844 4.2307 11.9372C4.27884 11.8901 4.30583 11.826 4.30583 11.76ZM4.04874 13.4945L3.64051 13.0288C3.54616 12.9251 3.38343 12.9157 3.27751 13.0081C3.17064 13.1005 3.16101 13.2598 3.25537 13.3635L3.86678 14.0375C3.91492 14.0913 3.98328 14.1214 4.05645 14.1224C4.12867 14.1224 4.19799 14.0922 4.24613 14.0394L5.8714 12.2794V12.2804C5.96672 12.1767 5.95806 12.0174 5.85215 11.924C5.7472 11.8316 5.58449 11.8401 5.48915 11.9429L4.04874 13.4945ZM12.7788 17.0813C12.7768 16.4799 12.2781 15.9926 11.6638 15.9926H3.24757C2.65349 16.0208 2.18652 16.5007 2.18652 17.0823C2.18652 17.6649 2.65349 18.1447 3.24757 18.172H11.6618C12.2761 18.1711 12.7749 17.6837 12.7758 17.0813H12.7788ZM12.7788 14.2808C12.7788 14.2148 12.7518 14.1507 12.7037 14.1035C12.6555 14.0564 12.59 14.03 12.5217 14.03H7.4919C7.35036 14.03 7.23482 14.1422 7.23482 14.2808C7.23482 14.4203 7.35036 14.5325 7.4919 14.5325H12.519C12.5883 14.5325 12.6557 14.5051 12.7038 14.4561C12.752 14.4071 12.778 14.3411 12.776 14.2732L12.7788 14.2808ZM7.49189 13.0845H9.03242C9.17396 13.0845 9.28951 12.9723 9.28951 12.8328C9.28951 12.6942 9.17397 12.5821 9.03242 12.5821H7.49189C7.35036 12.5821 7.23481 12.6942 7.23481 12.8328C7.23481 12.9723 7.35035 13.0845 7.49189 13.0845ZM12.848 10.2263C12.848 10.1593 12.8211 10.0952 12.7729 10.0481C12.7248 10.001 12.6593 9.97457 12.5909 9.97457H2.39262C2.25108 9.97457 2.13553 10.0877 2.13553 10.2263C2.13553 10.3649 2.25107 10.478 2.39262 10.478H12.5909C12.6593 10.478 12.7248 10.4516 12.7729 10.4044C12.8211 10.3573 12.848 10.2932 12.848 10.2263ZM12.848 8.67556C12.848 8.60863 12.8211 8.54453 12.7729 8.49739C12.7248 8.45026 12.6593 8.42386 12.5909 8.42386H2.39262C2.25108 8.42386 2.13553 8.53604 2.13553 8.67557C2.13553 8.81414 2.25107 8.92633 2.39262 8.92633H12.5909C12.6593 8.92633 12.7248 8.89993 12.7729 8.8528C12.8211 8.80566 12.848 8.74155 12.848 8.67556ZM12.848 7.12203C12.848 7.0551 12.8211 6.991 12.7729 6.94386C12.7248 6.89673 12.6593 6.87033 12.5909 6.87033H2.39262C2.25108 6.87033 2.13553 6.98251 2.13553 7.12204C2.13553 7.26061 2.25107 7.3728 2.39262 7.3728H12.5909C12.6593 7.3728 12.7248 7.3464 12.7729 7.29927C12.8211 7.25213 12.848 7.18802 12.848 7.12203ZM12.848 5.57038C12.848 5.50439 12.8211 5.44029 12.7729 5.39316C12.7248 5.34602 12.6593 5.31963 12.5909 5.31963H2.39262C2.25108 5.31963 2.13553 5.43181 2.13553 5.57039C2.13553 5.7099 2.25107 5.82209 2.39262 5.82209H12.5909C12.7325 5.82209 12.848 5.70991 12.848 5.57038Z" fill="#042E60"/>
</svg>
